<svg id="b775a045-a0f7-423c-8ece-7103af0a8d2a" data-name="Layer 1" xmlns="http://www.w3.org/2000/svg" xmlns:xlink="http://www.w3.org/1999/xlink" width="927.75971" height="742.50822" viewBox="0 0 927.75971 742.50822"><defs><linearGradient id="e4fa8566-8067-4800-bb45-fde9d0ef8fed" x1="728.76281" y1="387.37317" x2="815.57278" y2="387.37317" gradientUnits="userSpaceOnUse"><stop offset="0" stop-color="#fff"/><stop offset="1" stop-color="#fff" stop-opacity="0.3"/></linearGradient><linearGradient id="aec9065a-fb64-4d23-a52d-034f51d95de1" x1="725.76281" y1="217.37317" x2="812.57278" y2="217.37317" xlink:href="#e4fa8566-8067-4800-bb45-fde9d0ef8fed"/></defs><path d="M1063.87985,329.939V523.119h-502.38V329.939a249.99076,249.99076,0,0,1,50.23-150.72,251.155,251.155,0,0,1,186.46-100.06q7.185-.42,14.5-.41c2.77,0,5.54.04,8.28.14a250.35448,250.35448,0,0,1,169.33,73.43c1.36,1.36,2.69,2.73,4.03,4.11a253.05026,253.05026,0,0,1,19.32,22.79A250.05548,250.05548,0,0,1,1063.87985,329.939Z" transform="translate(-136.12015 -78.74589)" fill="#3f3d56"/><circle cx="802.64523" cy="177.29151" r="66.1926" fill="#6c63ff"/><circle cx="796.13448" cy="131.71628" r="7.59587" opacity="0.2"/><circle cx="809.15598" cy="207.675" r="7.59587" opacity="0.2"/><circle cx="838.45434" cy="165.35514" r="5.42562" opacity="0.2"/><circle cx="776.60224" cy="182.71713" r="17.36199" opacity="0.2"/><path d="M730.68559,437.80691l32.97057-38.59855,32.97057-38.59855,18.61242-21.78951c1.02982-1.20559-.55937-3.08642-1.58914-1.88087L780.67943,375.538l-32.97057,38.59855L729.09644,435.926c-1.02981,1.20559.55937,3.08642,1.58915,1.88087Z" transform="translate(-136.12015 -78.74589)" opacity="0.8" fill="url(#e4fa8566-8067-4800-bb45-fde9d0ef8fed)"/><path d="M727.68559,267.80691l32.97057-38.59855,32.97057-38.59855,18.61242-21.78951c1.02982-1.20559-.55937-3.08642-1.58914-1.88087L777.67943,205.538l-32.97057,38.59855L726.09644,265.926c-1.02981,1.20559.55937,3.08642,1.58915,1.88087Z" transform="translate(-136.12015 -78.74589)" opacity="0.8" fill="url(#aec9065a-fb64-4d23-a52d-034f51d95de1)"/><path d="M820.97349,78.89092V523.117H798.18523V79.16018q7.19385-.41944,14.50162-.41429C815.46287,78.74589,818.22852,78.7873,820.97349,78.89092Z" transform="translate(-136.12015 -78.74589)" fill="#fff"/><path d="M1013.64824,179.2214H611.72546a251.94482,251.94482,0,0,1,19.31826-22.78826H994.33A251.94482,251.94482,0,0,1,1013.64824,179.2214Z" transform="translate(-136.12015 -78.74589)" fill="#fff"/><circle cx="871.61889" cy="292.41526" r="5.21549" fill="#e6e6e6"/><circle cx="534.61889" cy="249.41526" r="5.21549" fill="#e6e6e6"/><polygon points="772.631 272.745 770.028 275.331 767.442 272.727 765.707 274.451 768.292 277.054 765.689 279.64 767.412 281.375 770.016 278.79 772.601 281.393 774.337 279.669 771.751 277.066 774.354 274.481 772.631 272.745" fill="#e6e6e6"/><polygon points="484.631 324.745 482.028 327.331 479.442 324.727 477.707 326.451 480.292 329.054 477.689 331.64 479.412 333.375 482.016 330.79 484.601 333.393 486.337 331.669 483.751 329.066 486.354 326.481 484.631 324.745" fill="#e6e6e6"/><polygon points="743.631 354.745 741.028 357.331 738.442 354.727 736.707 356.451 739.292 359.054 736.689 361.64 738.412 363.375 741.016 360.79 743.601 363.393 745.337 361.669 742.751 359.066 745.354 356.481 743.631 354.745" fill="#e6e6e6"/><polygon points="567.631 124.745 565.028 127.331 562.442 124.727 560.707 126.451 563.292 129.054 560.689 131.64 562.412 133.375 565.016 130.79 567.601 133.393 569.337 131.669 566.751 129.066 569.354 126.481 567.631 124.745" fill="#e6e6e6"/><rect y="705.80335" width="606.0958" height="2" fill="#e6e6e6"/><path d="M232.54422,623.31c-13.25,18.73-16.75,125.33-17.53,159.5-.02.77-.04,1.5-.05,2.19h-33.54c-.41-.73-.79-1.45-1.15-2.19-19.88-39.24-8.85-86.29-8.27-88.67-1.51,7.48,5.32,29.16,13.04,50.16C189.75418,679.73,230.0242,626.57,232.54422,623.31Z" transform="translate(-136.12015 -78.74589)" fill="#e6e6e6"/><path d="M439.36536,527.33529,435.56929,543.785s1.26536,37.96079-8.85752,34.16471-7.59216-36.69543-7.59216-36.69543l8.85752-16.44967Z" transform="translate(-136.12015 -78.74589)" fill="#ffb8b8"/><circle cx="246.93671" cy="242.96846" r="25.30719" fill="#ffb8b8"/><path d="M363.44379,328.67383l-2.53072,36.69542,31.634,3.79608s0-30.36863,2.53072-34.16471S363.44379,328.67383,363.44379,328.67383Z" transform="translate(-136.12015 -78.74589)" fill="#ffb8b8"/><path d="M433.59775,376.46137l-40.991-17.31656s-19.58709-15.08638-31.05934-3.90982l-5.14879,7.375s-45.53743,17.75488-45.52525,31.67383l17.7759,69.57925s-10.08856,39.235,5.098,41.75243l82.255,7.5202s11.37606-13.92891,1.23769-31.63508l3.75955-41.76017Z" transform="translate(-136.12015 -78.74589)" fill="#e6e6e6"/><path d="M405.761,377.75108l27.8368-1.28971s8.85972,2.523,15.20755,26.55926,7.6475,63.26131,7.6475,63.26131l-15.12232,70.8734-18.9826-2.51412,7.53238-68.336-12.69344-45.54186Z" transform="translate(-136.12015 -78.74589)" fill="#e6e6e6"/><path d="M326.05,385.413,312.329,389.69942s-11.56744,17.24679-11.55969,26.10431-4.995,75.926-4.995,75.926l32.94693,54.38167L338.82089,519.53l-20.27563-34.147,16.41314-41.77124Z" transform="translate(-136.12015 -78.74589)" fill="#e6e6e6"/><path d="M419.75229,510.25293l-90.9753-8.00447s-8.98811,57.3535-7.72275,80.13S323.585,640.585,323.585,640.585L313.46208,794.95884l39.22615-5.06143,5.06144-127.80133,16.44967-69.59477,18.9804,88.57517,12.65359,113.88236,34.16471-3.79608L428.60981,653.23857S438.73268,529.23332,419.75229,510.25293Z" transform="translate(-136.12015 -78.74589)" fill="#2f2e41"/><path d="M432.40589,784.836l11.38823,3.79608s24.04184-6.3268,17.715,10.12287-24.04184,13.919-24.04184,13.919-21.51111,16.44967-30.36863,3.79608l5.06144-26.57255Z" transform="translate(-136.12015 -78.74589)" fill="#2f2e41"/><path d="M340.03463,784.836l11.38824,3.79608s24.04183-6.3268,17.715,10.12287-24.04184,13.919-24.04184,13.919S323.585,829.12355,314.72744,816.47l5.06144-26.57255Z" transform="translate(-136.12015 -78.74589)" fill="#2f2e41"/><path d="M363.44379,343.85814s-26.57255-18.98039-12.6536-41.75687c9.65618-15.801,29.66523-14.55027,41.01535-12.30214a19.17523,19.17523,0,0,1,14.02779,11.03678c1.898,4.42876,1.898,8.85752-5.69411,8.85752-15.18432,0-7.59216,11.38824-7.59216,11.38824s-10.12288,2.53072-7.59216,11.38823S363.44379,343.85814,363.44379,343.85814Z" transform="translate(-136.12015 -78.74589)" fill="#2f2e41"/></svg>