<svg id="Capa_1" enable-background="new 0 0 512 512" height="512" viewBox="0 0 512 512" width="512" xmlns="http://www.w3.org/2000/svg"><g><path d="m393.503 67.505h-38.351c-5.29-38.384-37.753-67.505-76.808-67.505h-4.844c-4.143 0-7.5 3.357-7.5 7.5s3.357 7.5 7.5 7.5h4.844c30.79 0 56.493 22.502 61.625 52.505h-20.353c-4.538-18.697-21.485-32.505-41.298-32.505h-46.803c-19.812 0-36.759 13.808-41.297 32.505h-20.353c5.133-30.003 30.837-52.505 61.626-52.505h7.009c4.143 0 7.5-3.357 7.5-7.5s-3.357-7.5-7.5-7.5h-7.009c-39.056 0-71.518 29.121-76.809 67.505h-36.186c-41.307 0-74.912 33.605-74.912 74.912v.156c0 9.632 7.837 17.469 17.47 17.469h11.49l22.934 289.684c1.285 16.995 8.909 32.735 21.467 44.321 12.549 11.577 28.882 17.953 45.993 17.953h186.125c17.11 0 33.443-6.376 45.991-17.953 12.558-11.586 20.182-27.326 21.465-44.295l22.936-289.71h11.49c9.633 0 17.47-7.837 17.47-17.469v-.156c0-41.307-33.605-74.912-74.912-74.912zm-161.987-17.505h46.803c11.541 0 21.579 7.238 25.611 17.505h-98.023c4.03-10.267 14.069-17.505 25.609-17.505zm170.047 398.595c-2.052 27.143-25.114 48.405-52.5 48.405h-186.125c-27.387 0-50.448-21.262-52.503-48.432l-22.843-288.526h336.816zm51.852-306.022c0 1.361-1.107 2.469-2.47 2.469h-389.89c-1.362 0-2.47-1.107-2.47-2.469v-.156c0-33.035 26.877-59.912 59.912-59.912h275.006c33.035 0 59.912 26.877 59.912 59.912z"/><path d="m256 457.985c14.131 0 25.628-11.497 25.628-25.628v-130.755c0-4.143-3.357-7.5-7.5-7.5s-7.5 3.357-7.5 7.5v130.756c0 5.86-4.768 10.628-10.628 10.628s-10.628-4.768-10.628-10.628v-207.354c0-5.86 4.768-10.628 10.628-10.628s10.628 4.768 10.628 10.628v41.598c0 4.143 3.357 7.5 7.5 7.5s7.5-3.357 7.5-7.5v-41.598c0-14.131-11.497-25.628-25.628-25.628s-25.628 11.497-25.628 25.628v207.354c0 14.13 11.497 25.627 25.628 25.627z"/><path d="m340.224 457.904c13.931 1.189 26.531-9.57 27.582-23.52l4.161-52.445c.327-4.129-2.754-7.741-6.884-8.069-4.129-.322-7.742 2.755-8.069 6.884l-4.161 52.444c-.436 5.788-5.659 10.25-11.436 9.754-5.706-.334-10.324-5.75-9.755-11.436l16.453-207.353c.464-5.843 5.612-10.221 11.436-9.755 5.704.335 10.325 5.75 9.755 11.436l-9.515 119.909c-.327 4.129 2.754 7.741 6.884 8.069 4.103.318 7.741-2.754 8.069-6.883l9.515-119.909c1.373-13.71-9.766-26.769-23.521-27.575-14.074-1.128-26.457 9.432-27.576 23.521l-16.453 207.354c-1.374 13.707 9.767 26.769 23.515 27.574z"/><path d="m139.329 373.064c.328 4.128 3.948 7.218 8.069 6.883 4.13-.328 7.211-3.94 6.884-8.069l-11.588-146.033c-.464-5.841 3.912-10.971 9.764-11.436 5.678-.582 11.094 4.06 11.427 9.754l16.453 207.355c.569 5.689-4.051 11.1-9.761 11.436-5.856.457-10.972-3.984-11.43-9.755l-2.034-25.637c-.327-4.129-3.926-7.199-8.069-6.884-4.13.328-7.211 3.94-6.884 8.069l2.034 25.638c1.05 13.947 13.648 24.705 27.576 23.521 13.754-.806 24.893-13.866 23.521-27.574l-16.453-207.355c-.806-13.748-13.869-24.914-27.576-23.52-14.087 1.118-24.639 13.488-23.521 27.575z"/></g></svg>