<?xml version="1.0" encoding="iso-8859-1"?>
<!-- Generator: Adobe Illustrator 19.0.0, SVG Export Plug-In . SVG Version: 6.00 Build 0)  -->
<svg version="1.1" id="Capa_1" xmlns="http://www.w3.org/2000/svg" xmlns:xlink="http://www.w3.org/1999/xlink" x="0px" y="0px"
	 viewBox="0 0 512 512" style="enable-background:new 0 0 512 512;" xml:space="preserve">
<g>
	<path style="fill:#00ABE9;" d="M256,0c-74.399,0-135,60.599-135,135c0,74.399,60.601,135,135,135s135-60.601,135-135
		C391,60.599,330.399,0,256,0z"/>
	<path style="fill:#00ABE9;" d="M478.599,398.599C438.1,338,370.6,302,297.7,302h-83.4c-72.9,0-140.4,36-180.899,96.599l-2.401,3.9
		V512h450V402.499L478.599,398.599z"/>
</g>
<g>
	<path style="fill:#0095FF;" d="M256,270V0c74.399,0,135,60.599,135,135C391,209.399,330.399,270,256,270z"/>
	<path style="fill:#0095FF;" d="M481,402.499V512H256V302h41.7c72.9,0,140.4,36,180.899,96.599L481,402.499z"/>
</g>
<g>
</g>
<g>
</g>
<g>
</g>
<g>
</g>
<g>
</g>
<g>
</g>
<g>
</g>
<g>
</g>
<g>
</g>
<g>
</g>
<g>
</g>
<g>
</g>
<g>
</g>
<g>
</g>
<g>
</g>
</svg>
